<svg width="318" height="318" viewBox="0 0 318 318" fill="none" xmlns="http://www.w3.org/2000/svg">
<path d="M0.907715 159.344C0.907715 158.302 0.917816 157.262 0.937866 156.225L1.33246 156.233C1.37256 154.16 1.45267 152.096 1.57205 150.043L1.17804 150.02C1.29877 147.944 1.4595 145.879 1.65955 143.826L2.05237 143.864C2.25363 141.798 2.49475 139.744 2.77493 137.702L2.38391 137.648C2.66653 135.588 2.98886 133.541 3.35001 131.508L3.73862 131.577C4.10098 129.536 4.50256 127.51 4.94257 125.497L4.55701 125.413C5.00049 123.384 5.48294 121.371 6.00348 119.372L6.38541 119.472C6.90781 117.466 7.46866 115.476 8.06717 113.502L7.68948 113.388C8.29227 111.4 8.93314 109.429 9.61124 107.475L9.9841 107.604C10.6631 105.648 11.3795 103.709 12.1324 101.789L11.765 101.645C12.5224 99.7129 13.3168 97.7995 14.1472 95.9055L14.5087 96.0639C15.3395 94.1689 16.2066 92.2932 17.109 90.4379L16.7541 90.2653C17.6615 88.3994 18.6046 86.5541 19.5825 84.7301L19.9303 84.9166C20.9081 83.0928 21.9206 81.2904 22.9671 79.5103L22.6269 79.3103C23.6779 77.5225 24.7631 75.7572 25.8815 74.0153L26.2136 74.2285C27.331 72.4882 28.4816 70.7712 29.6646 69.0785L29.3411 68.8524C30.5286 67.1533 31.7485 65.4786 33.0002 63.8292L33.3146 64.0678C34.5644 62.4207 35.8459 60.799 37.158 59.2034L36.8532 58.9527C38.1696 57.3518 39.5169 55.7773 40.8942 54.23L41.189 54.4924C42.5632 52.9484 43.9674 51.4315 45.4005 49.9427L45.1161 49.669C46.5529 48.1763 48.0188 46.7118 49.5128 45.2763L49.7862 45.5609C51.2763 44.1292 52.7944 42.7264 54.3397 41.3535L54.0776 41.0584C55.6261 39.6826 57.2019 38.3367 58.8039 37.0217L59.0543 37.3267C60.6511 36.016 62.274 34.736 63.9222 33.4875L63.6839 33.1729C65.3343 31.9228 67.0101 30.7042 68.7102 29.5182L68.936 29.8419C70.6297 28.6604 72.3476 27.5112 74.0889 26.3952L73.8759 26.063C75.6188 24.946 77.3849 23.8623 79.1736 22.8126L79.3734 23.153C81.1542 22.1079 82.9574 21.0968 84.7819 20.1204L84.5957 19.7724C86.4204 18.796 88.2665 17.8542 90.133 16.948L90.3054 17.3031C92.1613 16.402 94.0376 15.5363 95.9332 14.7067L95.775 14.3451C97.6695 13.516 99.5835 12.7228 101.516 11.9666L101.66 12.3341C103.581 11.5823 105.52 10.8671 107.477 10.1892L107.347 9.81629C109.301 9.1393 111.273 8.49949 113.261 7.8977L113.375 8.27545C115.349 7.67794 117.34 7.11801 119.346 6.59649L119.246 6.21452C121.245 5.69487 123.259 5.21327 125.288 4.77054L125.372 5.15613C127.384 4.7169 129.411 4.31602 131.452 3.9543L131.383 3.56569C133.416 3.20516 135.464 2.88344 137.523 2.60131L137.577 2.99233C139.619 2.71264 141.673 2.47196 143.739 2.27108L143.701 1.87826C145.755 1.67857 147.82 1.51811 149.896 1.39762L149.919 1.79163C151.972 1.67247 154.035 1.5925 156.108 1.55247L156.101 1.15787C157.138 1.13785 158.177 1.12779 159.219 1.12779C160.261 1.12779 161.3 1.13785 162.338 1.15787L162.33 1.55247C164.403 1.59251 166.467 1.67247 168.52 1.79163L168.542 1.39762C170.618 1.51811 172.684 1.67858 174.737 1.87826L174.699 2.27108C176.765 2.47197 178.819 2.71265 180.861 2.99234L180.915 2.60132C182.975 2.88345 185.022 3.20517 187.056 3.5657L186.987 3.95431C189.027 4.31603 191.054 4.71691 193.066 5.15615L193.151 4.77055C195.179 5.21328 197.193 5.69488 199.192 6.21453L199.093 6.59651C201.098 7.11802 203.089 7.67795 205.063 8.27546L205.177 7.89772C207.165 8.4995 209.137 9.13931 211.091 9.81631L210.962 10.1892C212.918 10.8671 214.858 11.5824 216.778 12.3341L216.922 11.9666C218.855 12.7229 220.769 13.516 222.663 14.3451L222.505 14.7067C224.401 15.5363 226.277 16.4021 228.133 17.3031L228.305 16.948C230.172 17.8542 232.018 18.796 233.842 19.7724L233.656 20.1204C235.481 21.0968 237.284 22.108 239.065 23.153L239.265 22.8126C241.053 23.8623 242.819 24.946 244.562 26.063L244.349 26.3952C246.091 27.5112 247.808 28.6604 249.502 29.8419L249.728 29.5182C251.428 30.7042 253.104 31.9228 254.754 33.1729L254.516 33.4875C256.164 34.736 257.787 36.016 259.384 37.3267L259.634 37.0217C261.236 38.3367 262.812 39.6826 264.361 41.0584L264.098 41.3535C265.644 42.7264 267.162 44.1292 268.652 45.5609L268.925 45.2763C270.419 46.7118 271.885 48.1763 273.322 49.669L273.038 49.9427C274.471 51.4315 275.875 52.9484 277.249 54.4924L277.544 54.23C278.921 55.7773 280.269 57.3518 281.585 58.9527L281.28 59.2034C282.592 60.799 283.874 62.4207 285.124 64.0678L285.438 63.8292C286.69 65.4786 287.91 67.1533 289.097 68.8524L288.774 69.0785C289.957 70.7712 291.107 72.4882 292.225 74.2285L292.557 74.0153C293.675 75.7572 294.76 77.5225 295.811 79.3103L295.471 79.5103C296.518 81.2904 297.53 83.0928 298.508 84.9165L298.856 84.7301C299.833 86.554 300.777 88.3994 301.684 90.2652L301.329 90.4378C302.232 92.2932 303.099 94.1688 303.929 96.0639L304.291 95.9054C305.121 97.7995 305.916 99.7129 306.673 101.645L306.306 101.789C307.059 103.709 307.775 105.648 308.454 107.604L308.827 107.475C309.505 109.429 310.146 111.4 310.749 113.388L310.371 113.502C310.969 115.476 311.53 117.466 312.053 119.472L312.435 119.372C312.955 121.371 313.438 123.384 313.881 125.413L313.496 125.497C313.936 127.509 314.337 129.536 314.7 131.577L315.088 131.508C315.449 133.541 315.772 135.588 316.054 137.648L315.663 137.702C315.943 139.743 316.185 141.798 316.386 143.864L316.779 143.826C316.979 145.879 317.139 147.944 317.26 150.02L316.866 150.043C316.985 152.096 317.066 154.159 317.106 156.233L317.5 156.225C317.52 157.262 317.53 158.302 317.53 159.344C317.53 160.386 317.52 161.425 317.5 162.462L317.106 162.455C317.066 164.528 316.985 166.591 316.866 168.644L317.26 168.667C317.139 170.743 316.979 172.808 316.779 174.862L316.386 174.823C316.185 176.889 315.943 178.944 315.663 180.986L316.054 181.039C315.772 183.099 315.449 185.146 315.088 187.18L314.7 187.111C314.337 189.151 313.936 191.178 313.496 193.19L313.881 193.275C313.438 195.303 312.955 197.317 312.435 199.315L312.053 199.216C311.53 201.221 310.969 203.211 310.371 205.185L310.749 205.299C310.146 207.287 309.505 209.258 308.827 211.212L308.454 211.083C307.775 213.039 307.059 214.978 306.306 216.898L306.673 217.043C305.916 218.974 305.121 220.888 304.291 222.782L303.929 222.623C303.099 224.519 302.232 226.394 301.329 228.249L301.684 228.422C300.777 230.288 299.834 232.133 298.856 233.957L298.508 233.771C297.53 235.595 296.518 237.397 295.471 239.177L295.811 239.377C294.76 241.165 293.675 242.93 292.557 244.672L292.225 244.459C291.107 246.199 289.957 247.916 288.774 249.609L289.097 249.835C287.91 251.534 286.69 253.209 285.438 254.858L285.124 254.62C283.874 256.267 282.592 257.888 281.28 259.484L281.585 259.735C280.269 261.336 278.921 262.91 277.544 264.457L277.249 264.195C275.875 265.739 274.471 267.256 273.038 268.745L273.322 269.018C271.885 270.511 270.419 271.976 268.925 273.411L268.652 273.126C267.162 274.558 265.644 275.961 264.098 277.334L264.361 277.629C262.812 279.005 261.236 280.351 259.634 281.666L259.384 281.361C257.787 282.671 256.164 283.951 254.516 285.2L254.754 285.514C253.104 286.765 251.428 287.983 249.728 289.169L249.502 288.845C247.808 290.027 246.091 291.176 244.349 292.292L244.562 292.624C242.819 293.741 241.053 294.825 239.265 295.875L239.065 295.534C237.284 296.579 235.481 297.591 233.656 298.567L233.842 298.915C232.018 299.891 230.172 300.833 228.305 301.739L228.133 301.384C226.277 302.285 224.401 303.151 222.505 303.981L222.663 304.342C220.769 305.171 218.855 305.965 216.922 306.721L216.778 306.353C214.858 307.105 212.918 307.82 210.962 308.498L211.091 308.871C209.137 309.548 207.165 310.188 205.177 310.79L205.063 310.412C203.089 311.009 201.098 311.569 199.093 312.091L199.192 312.473C197.193 312.993 195.179 313.474 193.151 313.917L193.066 313.531C191.054 313.97 189.027 314.371 186.987 314.733L187.055 315.122C185.022 315.482 182.975 315.804 180.915 316.086L180.861 315.695C178.819 315.975 176.765 316.215 174.699 316.416L174.737 316.809C172.683 317.009 170.618 317.169 168.542 317.29L168.52 316.896C166.467 317.015 164.403 317.095 162.33 317.135L162.337 317.53C161.3 317.55 160.261 317.56 159.219 317.56C158.177 317.56 157.138 317.55 156.101 317.53L156.108 317.135C154.035 317.095 151.971 317.015 149.919 316.896L149.896 317.29C147.82 317.169 145.755 317.009 143.701 316.809L143.739 316.416C141.673 316.215 139.619 315.975 137.577 315.695L137.523 316.086C135.463 315.804 133.416 315.482 131.383 315.122L131.452 314.733C129.411 314.371 127.384 313.97 125.372 313.531L125.287 313.917C123.259 313.474 121.245 312.992 119.246 312.473L119.346 312.091C117.34 311.569 115.349 311.009 113.375 310.412L113.261 310.79C111.273 310.188 109.301 309.548 107.347 308.871L107.476 308.498C105.52 307.82 103.581 307.105 101.66 306.353L101.516 306.721C99.5834 305.965 97.6695 305.171 95.775 304.342L95.9332 303.981C94.0375 303.151 92.1613 302.285 90.3054 301.384L90.133 301.739C88.2664 300.833 86.4204 299.891 84.5957 298.915L84.7819 298.567C82.9573 297.591 81.1542 296.579 79.3733 295.534L79.1736 295.875C77.3849 294.825 75.6187 293.741 73.8759 292.624L74.0889 292.292C72.3476 291.176 70.6297 290.027 68.936 288.845L68.7102 289.169C67.0101 287.983 65.3343 286.765 63.6839 285.514L63.9222 285.2C62.274 283.951 60.6511 282.671 59.0543 281.361L58.8039 281.666C57.2019 280.351 55.6261 279.005 54.0776 277.629L54.3397 277.334C52.7944 275.961 51.2763 274.558 49.7862 273.126L49.5128 273.411C48.0188 271.976 46.5529 270.511 45.1161 269.018L45.4005 268.745C43.9674 267.256 42.5632 265.739 41.189 264.195L40.8942 264.457C39.5169 262.91 38.1696 261.336 36.8532 259.735L37.158 259.484C35.8459 257.888 34.5644 256.267 33.3146 254.62L33.0002 254.858C31.7486 253.209 30.5286 251.534 29.3411 249.835L29.6646 249.609C28.4816 247.916 27.331 246.199 26.2136 244.459L25.8815 244.672C24.7631 242.93 23.6779 241.165 22.6269 239.377L22.9671 239.177C21.9207 237.397 20.9081 235.595 19.9303 233.771L19.5825 233.957C18.6046 232.133 17.6616 230.288 16.7541 228.422L17.109 228.25C16.2066 226.394 15.3396 224.519 14.5087 222.623L14.1472 222.782C13.3168 220.888 12.5225 218.975 11.765 217.043L12.1324 216.899C11.3795 214.978 10.6631 213.039 9.9841 211.083L9.61127 211.212C8.93314 209.259 8.29227 207.287 7.68948 205.3L8.0672 205.185C7.46869 203.211 6.90784 201.221 6.38544 199.216L6.00351 199.315C5.48294 197.317 5.00052 195.303 4.55701 193.275L4.94257 193.19C4.50256 191.178 4.10098 189.151 3.73862 187.111L3.35004 187.18C2.98886 185.146 2.66656 183.099 2.38394 181.04L2.77493 180.986C2.49475 178.944 2.25366 176.89 2.0524 174.824L1.65958 174.862C1.45953 172.808 1.29877 170.743 1.17807 168.667L1.57208 168.644C1.4527 166.591 1.37256 164.528 1.33246 162.455L0.937866 162.462C0.917816 161.425 0.907715 160.386 0.907715 159.344Z" stroke="#00ADEE" stroke-width="0.789345" stroke-dasharray="6.31 6.31"/>
</svg>
