<svg width="360" height="476" viewBox="0 0 360 476" fill="none" xmlns="http://www.w3.org/2000/svg">
<path d="M-60.0509 238.344C-60.0509 237.267 -60.0437 236.191 -60.0294 235.118L-59.6348 235.123C-59.6062 232.98 -59.5491 230.843 -59.4638 228.714L-59.8582 228.698C-59.7722 226.551 -59.6578 224.412 -59.5151 222.28L-59.1213 222.307C-58.9783 220.17 -58.8068 218.04 -58.6074 215.919L-59.0003 215.882C-58.7992 213.743 -58.5696 211.612 -58.312 209.489L-57.9202 209.537C-57.6623 207.412 -57.3762 205.296 -57.0624 203.189L-57.4528 203.131C-57.1361 201.006 -56.7913 198.889 -56.4186 196.782L-56.0299 196.851C-55.6574 194.745 -55.257 192.649 -54.8291 190.562L-55.2157 190.483C-54.7839 188.377 -54.3242 186.282 -53.837 184.198L-53.4527 184.287C-52.9658 182.204 -52.4513 180.131 -51.9097 178.069L-52.2914 177.969C-51.746 175.892 -51.1731 173.827 -50.5731 171.773L-50.1943 171.884C-49.5941 169.829 -48.9669 167.786 -48.3129 165.755L-48.6886 165.634C-48.0311 163.592 -47.3467 161.562 -46.6358 159.545L-46.2635 159.676C-45.5519 157.657 -44.8137 155.651 -44.0493 153.657L-44.4178 153.516C-43.6504 151.514 -42.8566 149.526 -42.0369 147.551L-41.6724 147.702C-40.8515 145.725 -40.0046 143.76 -39.1321 141.81L-39.4924 141.649C-38.6175 139.694 -37.7169 137.752 -36.791 135.825L-36.4352 135.996C-35.5078 134.066 -34.555 132.15 -33.5772 130.25L-33.9282 130.069C-32.9482 128.164 -31.9431 126.274 -30.9134 124.399L-30.5674 124.589C-29.537 122.714 -28.4819 120.853 -27.4025 119.008L-27.7431 118.809C-26.661 116.96 -25.5545 115.127 -24.4241 113.31L-24.089 113.518C-22.9589 111.702 -21.8049 109.902 -20.6274 108.118L-20.9568 107.901C-19.7761 106.113 -18.5718 104.342 -17.3444 102.588L-17.021 102.814C-15.7948 101.062 -14.5454 99.3277 -13.2734 97.6108L-13.5905 97.3759C-12.315 95.6543 -11.0167 93.9506 -9.69608 92.2652L-9.38541 92.5086C-8.06662 90.8256 -6.72556 89.1609 -5.36261 87.5148L-5.6666 87.2631C-4.30032 85.6131 -2.91214 83.9819 -1.50244 82.3699L-1.20535 82.6297C0.202148 81.0202 1.63113 79.4299 3.08109 77.8592L2.79108 77.5915C4.24387 76.0178 5.71768 74.4639 7.21213 72.93L7.49481 73.2055C8.98676 71.6742 10.4993 70.1631 12.0319 68.6725L11.7567 68.3895C13.2919 66.8965 14.8472 65.4241 16.4222 63.9727L16.6897 64.2629C18.2616 62.8144 19.8531 61.3869 21.4639 59.9808L21.2044 59.6835C22.8177 58.2753 24.4502 56.8885 26.1015 55.5236L26.3529 55.8279C28.0001 54.4664 29.666 53.1268 31.3502 51.8095L31.107 51.4987C32.7935 50.1795 34.4984 48.8827 36.2211 47.6087L36.4557 47.926C38.1737 46.6555 39.9095 45.4076 41.6626 44.1828L41.4366 43.8593C43.1913 42.6334 44.9634 41.4306 46.7524 40.2514L46.9697 40.5809C48.7538 39.4049 50.5548 38.2523 52.3722 37.1237L52.164 36.7884C53.9818 35.6596 55.8159 34.5546 57.666 33.4739L57.8651 33.8147C59.7105 32.7368 61.5719 31.6831 63.4487 30.654L63.2589 30.308C65.1343 29.2797 67.0251 28.2761 68.9308 27.2974L69.1111 27.6485C71.0125 26.6722 72.9288 25.7207 74.8596 24.7947L74.6889 24.4389C76.6165 23.5143 78.5587 22.615 80.5148 21.7414L80.6757 22.1018C82.6264 21.2306 84.5911 20.385 86.5692 19.5655L86.4182 19.2009C88.3936 18.3824 90.3825 17.5899 92.3844 16.8237L92.5255 17.1923C94.5196 16.4291 96.5267 15.692 98.5463 14.9815L98.4153 14.6092C100.433 13.8995 102.463 13.2162 104.505 12.5598L104.626 12.9355C106.657 12.2826 108.701 11.6564 110.756 11.0573L110.645 10.6784C112.699 10.0794 114.765 9.50746 116.842 8.96294L116.942 9.34471C119.004 8.80403 121.077 8.29044 123.161 7.80433L123.071 7.41998C125.156 6.93361 127.252 6.47472 129.357 6.04369L129.436 6.43035C131.523 6.00322 133.619 5.60352 135.725 5.23163L135.657 4.84297C137.764 4.47093 139.88 4.12667 142.006 3.8106L142.064 4.20098C144.171 3.88771 146.287 3.60217 148.412 3.34474L148.364 2.95293C150.487 2.69576 152.618 2.4666 154.757 2.26582L154.794 2.65877C156.915 2.45969 159.045 2.28858 161.182 2.14579L161.156 1.752C163.287 1.60958 165.427 1.4953 167.573 1.40952L167.589 1.80388C169.718 1.71878 171.855 1.66179 173.999 1.63324L173.993 1.23861C175.067 1.22431 176.142 1.21714 177.219 1.21714C178.296 1.21714 179.371 1.22431 180.444 1.23861L180.439 1.63325C182.583 1.66179 184.719 1.71879 186.849 1.80389L186.865 1.40953C189.011 1.49531 191.15 1.60959 193.282 1.75201L193.256 2.1458C195.393 2.28859 197.522 2.45971 199.644 2.65879L199.68 2.26584C201.82 2.46662 203.951 2.69578 206.073 2.95295L206.026 3.34476C208.151 3.60219 210.267 3.88773 212.373 4.20101L212.431 3.81063C214.557 4.1267 216.674 4.47095 218.781 4.84299L218.712 5.23165C220.818 5.60354 222.915 6.00325 225.001 6.43038L225.081 6.04372C227.186 6.47474 229.281 6.93364 231.366 7.42001L231.277 7.80436C233.36 8.29046 235.434 8.80406 237.496 9.34473L237.596 8.96296C239.673 9.50748 241.738 10.0794 243.793 10.6784L243.682 11.0573C245.737 11.6564 247.78 12.2826 249.811 12.9355L249.932 12.5598C251.974 13.2162 254.005 13.8995 256.022 14.6092L255.891 14.9816C257.911 15.692 259.918 16.4291 261.912 17.1923L262.053 16.8237C264.055 17.5899 266.044 18.3824 268.019 19.2009L267.868 19.5655C269.846 20.385 271.811 21.2306 273.762 22.1018L273.923 21.7414C275.879 22.615 277.821 23.5143 279.749 24.4388L279.578 24.7947C281.509 25.7207 283.425 26.6721 285.326 27.6485L285.507 27.2974C287.412 28.2761 289.303 29.2797 291.179 30.3079L290.989 30.654C292.866 31.683 294.727 32.7368 296.572 33.8147L296.771 33.4739C298.622 34.5546 300.456 35.6595 302.273 36.7884L302.065 37.1237C303.883 38.2523 305.684 39.4049 307.468 40.5809L307.685 40.2513C309.474 41.4306 311.246 42.6334 313.001 43.8592L312.775 44.1828C314.528 45.4076 316.264 46.6554 317.982 47.926L318.216 47.6087C319.939 48.8827 321.644 50.1795 323.33 51.4986L323.087 51.8095C324.771 53.1268 326.437 54.4664 328.085 55.8278L328.336 55.5236C329.987 56.8885 331.62 58.2752 333.233 59.6835L332.974 59.9808C334.584 61.3869 336.176 62.8144 337.748 64.2629L338.015 63.9727C339.59 65.424 341.146 66.8965 342.681 68.3895L342.406 68.6724C343.938 70.163 345.451 71.6742 346.943 73.2054L347.225 72.93C348.72 74.4638 350.194 76.0178 351.646 77.5915L351.356 77.8592C352.806 79.4298 354.235 81.0201 355.643 82.6296L355.94 82.3698C357.35 83.9818 358.738 85.6131 360.104 87.2631L359.8 87.5148C361.163 89.1608 362.504 90.8256 363.823 92.5086L364.134 92.2652C365.454 93.9506 366.752 95.6543 368.028 97.3758L367.711 97.6108C368.983 99.3277 370.232 101.062 371.459 102.814L371.782 102.588C373.009 104.342 374.214 106.113 375.394 107.901L375.065 108.118C376.242 109.902 377.396 111.702 378.527 113.518L378.862 113.31C379.992 115.126 381.098 116.96 382.181 118.809L381.84 119.008C382.919 120.853 383.974 122.713 385.005 124.589L385.351 124.399C386.381 126.274 387.386 128.164 388.366 130.069L388.015 130.25C388.993 132.15 389.945 134.066 390.873 135.996L391.228 135.825C392.154 137.752 393.055 139.694 393.93 141.649L393.57 141.81C394.442 143.76 395.289 145.725 396.11 147.702L396.474 147.551C397.294 149.526 398.088 151.514 398.855 153.516L398.487 153.657C399.251 155.651 399.989 157.657 400.701 159.676L401.073 159.545C401.784 161.563 402.469 163.592 403.126 165.634L402.75 165.755C403.404 167.786 404.032 169.829 404.632 171.884L405.011 171.773C405.611 173.827 406.184 175.892 406.729 177.969L406.347 178.069C406.889 180.131 407.403 182.204 407.89 184.288L408.275 184.198C408.762 186.282 409.221 188.378 409.653 190.483L409.267 190.562C409.694 192.649 410.095 194.745 410.467 196.851L410.856 196.782C411.229 198.889 411.574 201.006 411.89 203.132L411.5 203.19C411.814 205.296 412.1 207.412 412.358 209.537L412.749 209.489C413.007 211.612 413.237 213.743 413.438 215.882L413.045 215.919C413.244 218.04 413.416 220.17 413.559 222.307L413.953 222.281C414.095 224.412 414.21 226.551 414.296 228.698L413.901 228.714C413.987 230.843 414.044 232.98 414.072 235.124L414.467 235.118C414.481 236.192 414.488 237.267 414.488 238.344C414.488 239.421 414.481 240.496 414.467 241.569L414.072 241.564C414.044 243.708 413.987 245.844 413.901 247.974L414.296 247.989C414.21 250.136 414.095 252.275 413.953 254.407L413.559 254.381C413.416 256.518 413.244 258.647 413.045 260.768L413.438 260.805C413.237 262.945 413.007 265.076 412.749 267.198L412.358 267.151C412.1 269.275 411.814 271.391 411.5 273.498L411.89 273.556C411.574 275.682 411.229 277.798 410.856 279.905L410.467 279.836C410.095 281.942 409.694 284.039 409.267 286.125L409.653 286.204C409.221 288.31 408.762 290.405 408.275 292.49L407.89 292.4C407.403 294.483 406.889 296.556 406.347 298.618L406.729 298.719C406.183 300.795 405.611 302.861 405.011 304.914L404.632 304.804C404.032 306.858 403.404 308.901 402.75 310.932L403.126 311.053C402.469 313.095 401.784 315.125 401.073 317.142L400.701 317.011C399.989 319.03 399.251 321.037 398.487 323.03L398.855 323.172C398.088 325.173 397.294 327.161 396.474 329.136L396.11 328.985C395.289 330.963 394.442 332.927 393.57 334.877L393.93 335.038C393.055 336.994 392.154 338.935 391.228 340.862L390.873 340.691C389.945 342.621 388.993 344.537 388.015 346.438L388.366 346.618C387.386 348.523 386.381 350.413 385.351 352.288L385.005 352.098C383.974 353.974 382.919 355.834 381.84 357.679L382.181 357.878C381.098 359.727 379.992 361.561 378.862 363.378L378.527 363.169C377.396 364.986 376.242 366.786 375.065 368.569L375.394 368.786C374.214 370.574 373.009 372.345 371.782 374.099L371.459 373.873C370.232 375.625 368.983 377.36 367.711 379.077L368.028 379.311C366.752 381.033 365.454 382.737 364.134 384.422L363.823 384.179C362.504 385.862 361.163 387.526 359.8 389.172L360.104 389.424C358.738 391.074 357.35 392.705 355.94 394.317L355.643 394.058C354.235 395.667 352.806 397.257 351.356 398.828L351.646 399.096C350.194 400.669 348.72 402.223 347.225 403.757L346.943 403.482C345.451 405.013 343.938 406.524 342.406 408.015L342.681 408.298C341.146 409.791 339.59 411.263 338.015 412.715L337.748 412.424C336.176 413.873 334.584 415.3 332.974 416.706L333.233 417.004C331.62 418.412 329.987 419.799 328.336 421.164L328.085 420.859C326.437 422.221 324.772 423.56 323.087 424.878L323.33 425.189C321.644 426.508 319.939 427.805 318.216 429.079L317.982 428.761C316.264 430.032 314.528 431.28 312.775 432.505L313.001 432.828C311.246 434.054 309.474 435.257 307.685 436.436L307.468 436.106C305.684 437.282 303.883 438.435 302.065 439.564L302.274 439.899C300.456 441.028 298.622 442.133 296.771 443.213L296.572 442.873C294.727 443.951 292.866 445.004 290.989 446.033L291.179 446.379C289.303 447.408 287.412 448.411 285.507 449.39L285.326 449.039C283.425 450.015 281.509 450.967 279.578 451.893L279.749 452.248C277.821 453.173 275.879 454.072 273.923 454.946L273.762 454.586C271.811 455.457 269.846 456.302 267.868 457.122L268.019 457.486C266.044 458.305 264.055 459.097 262.053 459.864L261.912 459.495C259.918 460.258 257.911 460.995 255.891 461.706L256.022 462.078C254.005 462.788 251.974 463.471 249.932 464.128L249.811 463.752C247.78 464.405 245.737 465.031 243.682 465.63L243.792 466.009C241.738 466.608 239.673 467.18 237.596 467.724L237.496 467.343C235.433 467.883 233.36 468.397 231.277 468.883L231.366 469.267C229.281 469.754 227.186 470.213 225.08 470.644L225.001 470.257C222.915 470.684 220.818 471.084 218.712 471.456L218.781 471.844C216.674 472.216 214.557 472.561 212.431 472.877L212.373 472.486C210.266 472.8 208.15 473.085 206.026 473.343L206.073 473.734C203.951 473.992 201.82 474.221 199.68 474.422L199.643 474.029C197.522 474.228 195.393 474.399 193.255 474.542L193.282 474.935C191.15 475.078 189.011 475.192 186.864 475.278L186.849 474.883C184.719 474.969 182.582 475.026 180.439 475.054L180.444 475.449C179.371 475.463 178.296 475.47 177.219 475.47C176.142 475.47 175.067 475.463 173.993 475.449L173.998 475.054C171.855 475.026 169.718 474.969 167.589 474.883L167.573 475.278C165.426 475.192 163.287 475.078 161.155 474.935L161.182 474.542C159.045 474.399 156.915 474.228 154.794 474.029L154.757 474.421C152.618 474.221 150.487 473.992 148.364 473.734L148.412 473.343C146.287 473.085 144.171 472.8 142.064 472.486L142.006 472.877C139.88 472.561 137.764 472.216 135.657 471.844L135.725 471.456C133.619 471.084 131.523 470.684 129.436 470.257L129.357 470.644C127.251 470.213 125.156 469.754 123.071 469.267L123.161 468.883C121.077 468.397 119.004 467.883 116.942 467.343L116.842 467.724C114.765 467.18 112.699 466.608 110.645 466.009L110.755 465.63C108.701 465.031 106.657 464.405 104.626 463.752L104.505 464.128C102.463 463.471 100.433 462.788 98.4153 462.078L98.5462 461.706C96.5266 460.995 94.5196 460.258 92.5255 459.495L92.3844 459.864C90.3825 459.097 88.3936 458.305 86.4182 457.486L86.5692 457.122C84.5911 456.302 82.6264 455.457 80.6757 454.586L80.5148 454.946C78.5587 454.072 76.6166 453.173 74.6889 452.248L74.8596 451.893C72.9288 450.967 71.0125 450.015 69.1111 449.039L68.9309 449.39C67.0251 448.411 65.1343 447.408 63.259 446.379L63.4487 446.033C61.5719 445.004 59.7106 443.951 57.8651 442.873L57.666 443.213C55.8159 442.133 53.9818 441.028 52.164 439.899L52.3722 439.564C50.5548 438.435 48.7538 437.282 46.9697 436.106L46.7525 436.436C44.9635 435.257 43.1914 434.054 41.4366 432.828L41.6627 432.505C39.9095 431.28 38.1738 430.032 36.4558 428.761L36.2211 429.079C34.4984 427.805 32.7936 426.508 31.1071 425.189L31.3502 424.878C29.666 423.561 28.0001 422.221 26.3529 420.859L26.1015 421.164C24.4502 419.799 22.8177 418.412 21.2044 417.004L21.464 416.707C19.8532 415.3 18.2616 413.873 16.6897 412.424L16.4223 412.715C14.8473 411.263 13.2919 409.791 11.7568 408.298L12.032 408.015C10.4993 406.524 8.98679 405.013 7.49484 403.482L7.21216 403.757C5.71774 402.223 4.2439 400.669 2.79111 399.096L3.08112 398.828C1.63116 397.257 0.202209 395.667 -1.20529 394.058L-1.50241 394.318C-2.91208 392.706 -4.30029 391.074 -5.66656 389.424L-5.36258 389.173C-6.72552 387.526 -8.06659 385.862 -9.38538 384.179L-9.69604 384.422C-11.0167 382.737 -12.3149 381.033 -13.5905 379.311L-13.2733 379.077C-14.5454 377.36 -15.7948 375.625 -17.021 373.873L-17.3444 374.099C-18.5718 372.345 -19.7761 370.574 -20.9568 368.786L-20.6274 368.569C-21.8049 366.786 -22.9589 364.986 -24.089 363.169L-24.4241 363.378C-25.5545 361.561 -26.6609 359.728 -27.7431 357.878L-27.4024 357.679C-28.4818 355.834 -29.537 353.974 -30.5674 352.098L-30.9133 352.288C-31.9431 350.413 -32.9482 348.523 -33.9282 346.618L-33.5772 346.438C-34.555 344.537 -35.5078 342.621 -36.4352 340.691L-36.791 340.862C-37.7169 338.935 -38.6175 336.994 -39.4924 335.038L-39.1321 334.877C-40.0046 332.927 -40.8515 330.963 -41.6724 328.985L-42.0369 329.136C-42.8566 327.161 -43.6504 325.173 -44.4178 323.172L-44.0493 323.03C-44.8137 321.037 -45.5519 319.03 -46.2635 317.011L-46.6358 317.142C-47.3467 315.125 -48.0311 313.095 -48.6886 311.053L-48.3129 310.932C-48.9669 308.901 -49.5941 306.858 -50.1943 304.804L-50.5732 304.914C-51.1731 302.86 -51.746 300.795 -52.2914 298.719L-51.9097 298.618C-52.4513 296.556 -52.9658 294.483 -53.4528 292.4L-53.8371 292.49C-54.3243 290.405 -54.784 288.31 -55.2157 286.204L-54.8291 286.125C-55.257 284.039 -55.6574 281.942 -56.0299 279.836L-56.4186 279.905C-56.7913 277.798 -57.1362 275.681 -57.4528 273.556L-57.0624 273.498C-57.3763 271.391 -57.6623 269.275 -57.9202 267.15L-58.312 267.198C-58.5696 265.075 -58.7992 262.944 -59.0003 260.805L-58.6074 260.768C-58.8069 258.647 -58.9783 256.517 -59.1213 254.38L-59.5151 254.407C-59.6578 252.275 -59.7723 250.136 -59.8582 247.989L-59.4638 247.973C-59.5491 245.844 -59.6062 243.707 -59.6348 241.564L-60.0294 241.569C-60.0437 240.496 -60.0509 239.42 -60.0509 238.344Z" stroke="#00ADEE" stroke-width="0.789345" stroke-dasharray="6.31 6.31"/>
</svg>
