<svg width="146" height="44" viewBox="0 0 146 44" fill="none" xmlns="http://www.w3.org/2000/svg">
<path fill-rule="evenodd" clip-rule="evenodd" d="M0 6.85753C0 3.07022 3.07022 0 6.85753 0H138.837C142.624 0 145.694 3.07022 145.694 6.85753V37.1425C145.694 40.9298 142.624 44 138.837 44H6.85752C3.07021 44 0 40.9298 0 37.1425V6.85753Z" fill="black"/>
<path d="M47.4531 14.6171V7.97056H49.3293C49.9075 7.97056 50.4188 8.09838 50.8631 8.35402C51.3075 8.60966 51.6498 8.97333 51.8902 9.44504C52.1337 9.91675 52.257 10.4585 52.26 11.0702V11.4947C52.26 12.1216 52.1383 12.6709 51.8948 13.1426C51.6544 13.6144 51.309 13.9765 50.8586 14.2291C50.4112 14.4817 49.8893 14.611 49.2928 14.6171H47.4531ZM48.3296 8.69182V13.9004H49.2517C49.9273 13.9004 50.4523 13.6904 50.8266 13.2705C51.204 12.8505 51.3927 12.2525 51.3927 11.4764V11.0884C51.3927 10.3337 51.2146 9.74785 50.8586 9.33092C50.5055 8.91094 50.0034 8.69791 49.3521 8.69182H48.3296ZM53.2323 12.1018C53.2323 11.618 53.3267 11.1828 53.5154 10.7963C53.7071 10.4098 53.9719 10.1115 54.3097 9.90154C54.6505 9.69155 55.0385 9.58655 55.4737 9.58655C56.1463 9.58655 56.6895 9.81937 57.1034 10.285C57.5203 10.7506 57.7288 11.3699 57.7288 12.1429V12.2023C57.7288 12.6831 57.636 13.1153 57.4504 13.4987C57.2678 13.8791 57.0045 14.1758 56.6606 14.3889C56.3198 14.6019 55.9272 14.7084 55.4829 14.7084C54.8133 14.7084 54.2701 14.4756 53.8532 14.01C53.4393 13.5444 53.2323 12.9281 53.2323 12.1612V12.1018ZM54.0814 12.2023C54.0814 12.7501 54.2077 13.1898 54.4603 13.5215C54.7159 13.8533 55.0568 14.0191 55.4829 14.0191C55.912 14.0191 56.2528 13.8517 56.5054 13.517C56.758 13.1792 56.8843 12.7075 56.8843 12.1018C56.8843 11.5601 56.755 11.1219 56.4963 10.7871C56.2406 10.4493 55.8998 10.2804 55.4737 10.2804C55.0568 10.2804 54.7205 10.4463 54.4649 10.778C54.2092 11.1097 54.0814 11.5845 54.0814 12.2023ZM63.1611 13.4531L64.1106 9.67785H64.9551L63.5172 14.6171H62.8324L61.6318 10.8739L60.4632 14.6171H59.7785L58.3451 9.67785H59.185L60.1574 13.3755L61.3077 9.67785H61.9879L63.1611 13.4531ZM66.6168 9.67785L66.6442 10.2987C67.0215 9.82393 67.5145 9.58655 68.1232 9.58655C69.1671 9.58655 69.6935 10.1754 69.7027 11.3532V14.6171H68.8582V11.3486C68.8551 10.9926 68.7729 10.7293 68.6117 10.5589C68.4534 10.3885 68.2054 10.3033 67.8676 10.3033C67.5937 10.3033 67.3532 10.3763 67.1463 10.5224C66.9394 10.6684 66.7781 10.8602 66.6624 11.0976V14.6171H65.8179V9.67785H66.6168ZM71.8938 14.6171H71.0493V7.60537H71.8938V14.6171ZM73.026 12.1018C73.026 11.618 73.1203 11.1828 73.309 10.7963C73.5007 10.4098 73.7655 10.1115 74.1033 9.90154C74.4441 9.69155 74.8322 9.58655 75.2673 9.58655C75.9399 9.58655 76.4831 9.81937 76.897 10.285C77.314 10.7506 77.5224 11.3699 77.5224 12.1429V12.2023C77.5224 12.6831 77.4296 13.1153 77.244 13.4987C77.0614 13.8791 76.7981 14.1758 76.4542 14.3889C76.1134 14.6019 75.7208 14.7084 75.2765 14.7084C74.6069 14.7084 74.0637 14.4756 73.6468 14.01C73.2329 13.5444 73.026 12.9281 73.026 12.1612V12.1018ZM73.875 12.2023C73.875 12.7501 74.0013 13.1898 74.2539 13.5215C74.5096 13.8533 74.8504 14.0191 75.2765 14.0191C75.7056 14.0191 76.0464 13.8517 76.299 13.517C76.5516 13.1792 76.6779 12.7075 76.6779 12.1018C76.6779 11.5601 76.5486 11.1219 76.2899 10.7871C76.0343 10.4493 75.6934 10.2804 75.2673 10.2804C74.8504 10.2804 74.5141 10.4463 74.2585 10.778C74.0029 11.1097 73.875 11.5845 73.875 12.2023ZM81.6309 14.6171C81.5822 14.5197 81.5426 14.3463 81.5122 14.0967C81.1196 14.5045 80.6509 14.7084 80.1062 14.7084C79.6193 14.7084 79.2191 14.5715 78.9056 14.2976C78.5952 14.0206 78.44 13.6707 78.44 13.2476C78.44 12.7333 78.6348 12.3347 79.0243 12.0516C79.4169 11.7656 79.9677 11.6225 80.6768 11.6225H81.4985V11.2345C81.4985 10.9393 81.4102 10.705 81.2337 10.5315C81.0572 10.355 80.797 10.2667 80.4531 10.2667C80.1518 10.2667 79.8992 10.3428 79.6953 10.495C79.4914 10.6471 79.3895 10.8313 79.3895 11.0473H78.5404C78.5404 10.8008 78.6271 10.5635 78.8006 10.3352C78.9771 10.1039 79.2145 9.92132 79.5127 9.78741C79.814 9.65351 80.1442 9.58655 80.5033 9.58655C81.0724 9.58655 81.5183 9.72959 81.8409 10.0157C82.1635 10.2987 82.3308 10.6897 82.343 11.1889V13.4622C82.343 13.9156 82.4008 14.2763 82.5165 14.5441V14.6171H81.6309ZM80.2294 13.9735C80.4942 13.9735 80.7453 13.905 80.9827 13.768C81.22 13.6311 81.392 13.4531 81.4985 13.2339V12.2205H80.8366C79.8019 12.2205 79.2845 12.5233 79.2845 13.129C79.2845 13.3937 79.3728 13.6007 79.5493 13.7498C79.7258 13.8989 79.9525 13.9735 80.2294 13.9735ZM83.4614 12.1064C83.4614 11.3486 83.641 10.74 84.0001 10.2804C84.3592 9.81784 84.8294 9.58655 85.4107 9.58655C85.9889 9.58655 86.4469 9.78437 86.7847 10.18V7.60537H87.6292V14.6171H86.8532L86.8121 14.0876C86.4743 14.5015 86.0041 14.7084 85.4015 14.7084C84.8294 14.7084 84.3622 14.4741 84.0001 14.0054C83.641 13.5368 83.4614 12.9251 83.4614 12.1703V12.1064ZM84.3059 12.2023C84.3059 12.7622 84.4216 13.2005 84.6529 13.517C84.8842 13.8335 85.2037 13.9917 85.6115 13.9917C86.1471 13.9917 86.5382 13.7513 86.7847 13.2705V11.0017C86.5321 10.5361 86.1441 10.3033 85.6206 10.3033C85.2068 10.3033 84.8842 10.463 84.6529 10.7826C84.4216 11.1021 84.3059 11.5753 84.3059 12.2023ZM91.0392 12.1018C91.0392 11.618 91.1336 11.1828 91.3223 10.7963C91.514 10.4098 91.7788 10.1115 92.1166 9.90154C92.4574 9.69155 92.8454 9.58655 93.2806 9.58655C93.9532 9.58655 94.4964 9.81937 94.9103 10.285C95.3272 10.7506 95.5357 11.3699 95.5357 12.1429V12.2023C95.5357 12.6831 95.4429 13.1153 95.2573 13.4987C95.0747 13.8791 94.8114 14.1758 94.4675 14.3889C94.1267 14.6019 93.7341 14.7084 93.2898 14.7084C92.6202 14.7084 92.077 14.4756 91.6601 14.01C91.2462 13.5444 91.0392 12.9281 91.0392 12.1612V12.1018ZM91.8883 12.2023C91.8883 12.7501 92.0146 13.1898 92.2672 13.5215C92.5228 13.8533 92.8637 14.0191 93.2898 14.0191C93.7189 14.0191 94.0597 13.8517 94.3123 13.517C94.5649 13.1792 94.6912 12.7075 94.6912 12.1018C94.6912 11.5601 94.5619 11.1219 94.3032 10.7871C94.0475 10.4493 93.7067 10.2804 93.2806 10.2804C92.8637 10.2804 92.5274 10.4463 92.2718 10.778C92.0161 11.1097 91.8883 11.5845 91.8883 12.2023ZM97.3936 9.67785L97.421 10.2987C97.7984 9.82393 98.2914 9.58655 98.9001 9.58655C99.9439 9.58655 100.47 10.1754 100.48 11.3532V14.6171H99.635V11.3486C99.632 10.9926 99.5498 10.7293 99.3885 10.5589C99.2303 10.3885 98.9822 10.3033 98.6444 10.3033C98.3705 10.3033 98.1301 10.3763 97.9232 10.5224C97.7162 10.6684 97.5549 10.8602 97.4393 11.0976V14.6171H96.5948V9.67785H97.3936ZM105.218 8.48184V9.67785H106.14V10.3306H105.218V13.3937C105.218 13.5915 105.259 13.7407 105.341 13.8411C105.423 13.9385 105.563 13.9872 105.761 13.9872C105.859 13.9872 105.992 13.9689 106.163 13.9324V14.6171C105.941 14.678 105.725 14.7084 105.515 14.7084C105.137 14.7084 104.853 14.5943 104.661 14.3661C104.469 14.1378 104.373 13.8137 104.373 13.3937V10.3306H103.474V9.67785H104.373V8.48184H105.218ZM107.975 10.2759C108.35 9.81632 108.836 9.58655 109.436 9.58655C110.48 9.58655 111.006 10.1754 111.015 11.3532V14.6171H110.171V11.3486C110.168 10.9926 110.086 10.7293 109.924 10.5589C109.766 10.3885 109.518 10.3033 109.18 10.3033C108.906 10.3033 108.666 10.3763 108.459 10.5224C108.252 10.6684 108.091 10.8602 107.975 11.0976V14.6171H107.131V7.60537H107.975V10.2759ZM114.33 14.7084C113.66 14.7084 113.115 14.4893 112.695 14.0511C112.275 13.6098 112.065 13.0209 112.065 12.2844V12.1292C112.065 11.6393 112.158 11.2025 112.344 10.8191C112.533 10.4326 112.794 10.1313 113.129 9.91523C113.467 9.69611 113.832 9.58655 114.225 9.58655C114.867 9.58655 115.366 9.79806 115.722 10.2211C116.078 10.6441 116.256 11.2497 116.256 12.0379V12.3894H112.91C112.922 12.8764 113.064 13.2705 113.334 13.5718C113.608 13.87 113.955 14.0191 114.375 14.0191C114.673 14.0191 114.926 13.9583 115.133 13.8365C115.34 13.7148 115.521 13.5535 115.676 13.3526L116.192 13.7544C115.778 14.3904 115.157 14.7084 114.33 14.7084ZM114.225 10.2804C113.884 10.2804 113.598 10.4052 113.366 10.6548C113.135 10.9013 112.992 11.2482 112.937 11.6956H115.411V11.6317C115.387 11.2025 115.272 10.8708 115.065 10.6365C114.858 10.3991 114.578 10.2804 114.225 10.2804Z" fill="white"/>
<path d="M56.0327 32.2082H50.5561L49.4103 35.5H46.8564L52.1971 21.3617H54.4014L59.7518 35.5H57.1883L56.0327 32.2082ZM51.2455 30.2273H55.3433L53.2944 24.3622L51.2455 30.2273ZM69.87 30.3535C69.87 31.9784 69.501 33.2763 68.763 34.2474C68.025 35.2119 67.0346 35.6942 65.7916 35.6942C64.6393 35.6942 63.7169 35.3155 63.0242 34.5581V39.5395H60.6646V24.9934H62.8397L62.9368 26.0615C63.6295 25.22 64.5714 24.7992 65.7625 24.7992C67.0443 24.7992 68.0477 25.2782 68.7727 26.2363C69.5042 27.1879 69.87 28.5118 69.87 30.2079V30.3535ZM67.5201 30.1496C67.5201 29.1009 67.3097 28.269 66.8889 27.654C66.4746 27.039 65.879 26.7315 65.1022 26.7315C64.1376 26.7315 63.445 27.1297 63.0242 27.9259V32.5869C63.4514 33.4026 64.1506 33.8104 65.1216 33.8104C65.8726 33.8104 66.4584 33.5094 66.8792 32.9073C67.3065 32.2988 67.5201 31.3796 67.5201 30.1496ZM81.0758 30.3535C81.0758 31.9784 80.7068 33.2763 79.9688 34.2474C79.2308 35.2119 78.2403 35.6942 76.9974 35.6942C75.8451 35.6942 74.9226 35.3155 74.2299 34.5581V39.5395H71.8703V24.9934H74.0455L74.1426 26.0615C74.8352 25.22 75.7771 24.7992 76.9683 24.7992C78.25 24.7992 79.2534 25.2782 79.9785 26.2363C80.71 27.1879 81.0758 28.5118 81.0758 30.2079V30.3535ZM78.7258 30.1496C78.7258 29.1009 78.5155 28.269 78.0947 27.654C77.6804 27.039 77.0848 26.7315 76.308 26.7315C75.3434 26.7315 74.6507 27.1297 74.2299 27.9259V32.5869C74.6572 33.4026 75.3564 33.8104 76.3274 33.8104C77.0783 33.8104 77.6642 33.5094 78.085 32.9073C78.5122 32.2988 78.7258 31.3796 78.7258 30.1496ZM95.651 31.8586C95.651 31.2371 95.4309 30.7581 94.9907 30.4215C94.557 30.0849 93.7704 29.745 92.6311 29.4019C91.4917 29.0588 90.5854 28.6768 89.9122 28.2561C88.6239 27.4469 87.9798 26.3917 87.9798 25.0905C87.9798 23.9511 88.4427 23.0125 89.3684 22.2745C90.3006 21.5365 91.5079 21.1675 92.9904 21.1675C93.9744 21.1675 94.8515 21.3488 95.6219 21.7113C96.3922 22.0738 96.9975 22.5917 97.4377 23.2649C97.8779 23.9317 98.098 24.6729 98.098 25.4886H95.651C95.651 24.7506 95.418 24.1745 94.9519 23.7602C94.4922 23.3394 93.8319 23.129 92.971 23.129C92.1682 23.129 91.5435 23.3005 91.0969 23.6436C90.6567 23.9867 90.4366 24.4658 90.4366 25.0808C90.4366 25.5987 90.6761 26.0324 91.1551 26.382C91.6342 26.7251 92.4239 27.0617 93.5244 27.3918C94.625 27.7155 95.5086 28.0878 96.1754 28.5085C96.8422 28.9228 97.3309 29.4019 97.6416 29.9457C97.9524 30.483 98.1077 31.1142 98.1077 31.8392C98.1077 33.0174 97.6546 33.9561 96.7483 34.6552C95.8485 35.3479 94.625 35.6942 93.0778 35.6942C92.0549 35.6942 91.113 35.5065 90.2521 35.131C89.3975 34.7491 88.7308 34.2247 88.2517 33.5579C87.7791 32.8911 87.5429 32.1143 87.5429 31.2274H89.9996C89.9996 32.0302 90.265 32.6516 90.7958 33.0918C91.3267 33.532 92.0873 33.7521 93.0778 33.7521C93.9323 33.7521 94.5732 33.5806 95.0004 33.2375C95.4342 32.8879 95.651 32.4283 95.651 31.8586ZM102.992 22.4396V24.9934H104.847V26.7412H102.992V32.6063C102.992 33.0077 103.07 33.299 103.225 33.4802C103.387 33.655 103.672 33.7424 104.08 33.7424C104.352 33.7424 104.627 33.7101 104.905 33.6453V35.4709C104.368 35.6198 103.85 35.6942 103.351 35.6942C101.539 35.6942 100.632 34.694 100.632 32.6937V26.7412H98.904V24.9934H100.632V22.4396H102.992ZM105.925 30.1496C105.925 29.1203 106.128 28.1946 106.536 27.3724C106.944 26.5438 107.517 25.9094 108.255 25.4692C108.993 25.0225 109.841 24.7992 110.799 24.7992C112.217 24.7992 113.366 25.2556 114.246 26.1683C115.133 27.0811 115.612 28.2917 115.683 29.8L115.693 30.3535C115.693 31.3893 115.493 32.315 115.091 33.1307C114.696 33.9463 114.127 34.5775 113.382 35.0242C112.644 35.4709 111.79 35.6942 110.819 35.6942C109.336 35.6942 108.148 35.2022 107.255 34.2182C106.368 33.2278 105.925 31.9104 105.925 30.2661V30.1496ZM108.284 30.3535C108.284 31.4346 108.508 32.2826 108.954 32.8976C109.401 33.5061 110.022 33.8104 110.819 33.8104C111.615 33.8104 112.233 33.4997 112.673 32.8782C113.12 32.2567 113.343 31.3472 113.343 30.1496C113.343 29.0879 113.113 28.2464 112.654 27.6249C112.201 27.0034 111.582 26.6927 110.799 26.6927C110.029 26.6927 109.417 27.0002 108.964 27.6152C108.511 28.2237 108.284 29.1365 108.284 30.3535ZM123.19 27.1491C122.879 27.0973 122.558 27.0714 122.228 27.0714C121.147 27.0714 120.419 27.4857 120.043 28.3143V35.5H117.684V24.9934H119.937L119.995 26.1683C120.565 25.2556 121.354 24.7992 122.364 24.7992C122.701 24.7992 122.979 24.8445 123.199 24.9351L123.19 27.1491ZM129.113 35.6942C127.618 35.6942 126.404 35.2249 125.472 34.2862C124.546 33.3411 124.083 32.0852 124.083 30.5186V30.2273C124.083 29.1786 124.284 28.2431 124.685 27.421C125.093 26.5924 125.663 25.9482 126.394 25.4886C127.126 25.029 127.941 24.7992 128.841 24.7992C130.272 24.7992 131.375 25.2556 132.152 26.1683C132.936 27.0811 133.327 28.3726 133.327 30.0428V30.9944H126.462C126.533 31.8618 126.821 32.548 127.326 33.053C127.838 33.5579 128.479 33.8104 129.249 33.8104C130.33 33.8104 131.21 33.3734 131.89 32.4995L133.162 33.7133C132.741 34.3412 132.178 34.83 131.473 35.1796C130.773 35.5227 129.987 35.6942 129.113 35.6942ZM128.831 26.6927C128.184 26.6927 127.66 26.9193 127.258 27.3724C126.863 27.8256 126.611 28.4567 126.501 29.2659H130.997V29.0912C130.945 28.3014 130.735 27.7058 130.366 27.3045C129.997 26.8966 129.485 26.6927 128.831 26.6927Z" fill="white"/>
<path fill-rule="evenodd" clip-rule="evenodd" d="M28.9493 7.5625C27.503 7.62354 25.7491 8.52832 24.712 9.74463C23.7794 10.8252 22.9649 12.5493 23.1847 14.2026C24.7999 14.3296 26.4454 13.3813 27.4513 12.1641C28.4552 10.9448 29.1339 9.25244 28.9493 7.5625ZM28.5401 36.3354C30.5001 36.2988 31.7413 34.5532 32.9415 32.7969C34.2579 30.8716 34.839 29.0049 34.9249 28.729L34.9347 28.6982L34.9278 28.6953C34.7462 28.6216 31.1104 27.1455 31.0743 22.8721C31.0372 19.2241 34.045 17.4727 34.1788 17.3848C32.4884 14.9102 29.8565 14.5708 28.919 14.5322C27.5489 14.3936 26.2198 14.918 25.1339 15.3462C24.4444 15.6182 23.8526 15.8516 23.4112 15.8516C22.919 15.8516 22.3116 15.6099 21.629 15.3384C20.7364 14.9834 19.7159 14.5781 18.6622 14.5977C16.2218 14.6343 13.9698 16.0195 12.713 18.2095C10.1749 22.6187 12.0626 29.1519 14.5343 32.7266C15.7442 34.4751 17.1837 36.4429 19.0763 36.3721C19.921 36.3379 20.5225 36.0815 21.1436 35.8164C21.8624 35.5098 22.6095 35.1919 23.7911 35.1919C24.9161 35.1919 25.628 35.5 26.3126 35.7969C26.9669 36.0806 27.5968 36.3535 28.5401 36.3354Z" fill="white"/>
</svg>
